<svg xmlns="http://www.w3.org/2000/svg" viewBox="0 0 200 200">
  <rect width="200" height="200" fill="#ffffff"/>
  <!-- finder patterns -->
  <g fill="#0B0C0E">
    <rect x="16" y="16" width="44" height="44" rx="4"/><rect x="26" y="26" width="24" height="24" rx="2" fill="#fff"/><rect x="33" y="33" width="10" height="10" fill="#0B0C0E"/>
    <rect x="140" y="16" width="44" height="44" rx="4"/><rect x="150" y="26" width="24" height="24" rx="2" fill="#fff"/><rect x="157" y="33" width="10" height="10" fill="#0B0C0E"/>
    <rect x="16" y="140" width="44" height="44" rx="4"/><rect x="26" y="150" width="24" height="24" rx="2" fill="#fff"/><rect x="33" y="157" width="10" height="10" fill="#0B0C0E"/>
  </g>
  <!-- decorative modules -->
  <g fill="#0B0C0E">
    <rect x="76" y="20" width="8" height="8"/><rect x="92" y="20" width="8" height="8"/><rect x="116" y="20" width="8" height="8"/>
    <rect x="84" y="36" width="8" height="8"/><rect x="108" y="36" width="8" height="8"/><rect x="124" y="36" width="8" height="8"/>
    <rect x="76" y="52" width="8" height="8"/><rect x="100" y="52" width="8" height="8"/><rect x="116" y="52" width="8" height="8"/>
    <rect x="20" y="76" width="8" height="8"/><rect x="44" y="76" width="8" height="8"/><rect x="68" y="76" width="8" height="8"/><rect x="92" y="76" width="8" height="8"/><rect x="116" y="76" width="8" height="8"/><rect x="148" y="76" width="8" height="8"/><rect x="172" y="76" width="8" height="8"/>
    <rect x="28" y="92" width="8" height="8"/><rect x="60" y="92" width="8" height="8"/><rect x="84" y="92" width="8" height="8"/><rect x="124" y="92" width="8" height="8"/><rect x="156" y="92" width="8" height="8"/>
    <rect x="76" y="108" width="8" height="8"/><rect x="100" y="108" width="8" height="8"/><rect x="132" y="108" width="8" height="8"/><rect x="164" y="108" width="8" height="8"/>
    <rect x="84" y="124" width="8" height="8"/><rect x="108" y="124" width="8" height="8"/><rect x="148" y="124" width="8" height="8"/><rect x="172" y="124" width="8" height="8"/>
    <rect x="76" y="148" width="8" height="8"/><rect x="100" y="148" width="8" height="8"/><rect x="124" y="148" width="8" height="8"/><rect x="156" y="148" width="8" height="8"/>
    <rect x="92" y="164" width="8" height="8"/><rect x="116" y="164" width="8" height="8"/><rect x="140" y="164" width="8" height="8"/><rect x="172" y="164" width="8" height="8"/>
  </g>
  <!-- center mark -->
  <circle cx="100" cy="100" r="15" fill="#fff"/>
  <circle cx="100" cy="100" r="11" fill="#0B0C0E"/>
  <circle cx="100" cy="100" r="5" fill="#CDF564"/>
</svg>
