<svg xmlns="http://www.w3.org/2000/svg" viewBox="0 0 1200 740" font-family="'IBM Plex Mono',ui-monospace,'PingFang SC',monospace">
  <rect width="1200" height="740" fill="#0B0C0E"/>
  <rect x="1" y="1" width="1198" height="738" fill="none" stroke="#23262b" stroke-width="1"/>
  <!-- top bar -->
  <g>
    <rect x="0" y="0" width="1200" height="56" fill="#101216"/>
    <circle cx="28" cy="28" r="5" fill="#CDF564"/><circle cx="46" cy="28" r="5" fill="#3a3d42"/><circle cx="64" cy="28" r="5" fill="#3a3d42"/>
    <text x="96" y="33" fill="#E9E6DE" font-size="15" font-weight="600">业务总览 · SALES BOARD</text>
    <text x="980" y="33" fill="#67675F" font-size="12">实时 · 自动刷新</text>
    <circle cx="1150" cy="28" r="4" fill="#CDF564"/>
  </g>
  <!-- KPI cards -->
  <g>
    <!-- card template -->
    <g>
      <rect x="32" y="84" width="270" height="118" rx="10" fill="#15181D" stroke="#23262b"/>
      <text x="52" y="116" fill="#67675F" font-size="12">本月营收</text>
      <rect x="52" y="128" width="150" height="26" rx="5" fill="#2a2d33"/><text x="60" y="147" fill="#9A998F" font-size="13">¥ ▮▮.▮ M 脱敏</text>
      <text x="52" y="184" fill="#CDF564" font-size="12">▲ 12.4% 环比</text>
    </g>
    <g>
      <rect x="318" y="84" width="270" height="118" rx="10" fill="#15181D" stroke="#23262b"/>
      <text x="338" y="116" fill="#67675F" font-size="12">回款率</text>
      <text x="338" y="160" fill="#E9E6DE" font-size="34" font-weight="700">86.2%</text>
      <text x="338" y="184" fill="#CDF564" font-size="12">▲ 3.1 pt</text>
    </g>
    <g>
      <rect x="604" y="84" width="270" height="118" rx="10" fill="#15181D" stroke="#23262b"/>
      <text x="624" y="116" fill="#67675F" font-size="12">本月新签</text>
      <text x="624" y="160" fill="#E9E6DE" font-size="34" font-weight="700">1,240</text>
      <text x="624" y="184" fill="#CDF564" font-size="12">▲ 8.0%</text>
    </g>
    <g>
      <rect x="890" y="84" width="278" height="118" rx="10" fill="#15181D" stroke="#23262b"/>
      <text x="910" y="116" fill="#67675F" font-size="12">线索转化</text>
      <rect x="910" y="128" width="120" height="26" rx="5" fill="#2a2d33"/><text x="918" y="147" fill="#9A998F" font-size="13">▮▮.▮% 脱敏</text>
      <text x="910" y="184" fill="#67675F" font-size="12">— 持平</text>
    </g>
  </g>
  <!-- trend chart -->
  <g>
    <rect x="32" y="224" width="742" height="468" rx="10" fill="#101216" stroke="#23262b"/>
    <text x="56" y="262" fill="#E9E6DE" font-size="15" font-weight="600">营收走势 · 近 12 月</text>
    <text x="56" y="284" fill="#67675F" font-size="12">单位已脱敏 · 仅示趋势</text>
    <!-- axes -->
    <line x1="80" y1="640" x2="742" y2="640" stroke="#23262b"/>
    <g stroke="#1a1d22"><line x1="80" y1="560" x2="742" y2="560"/><line x1="80" y1="470" x2="742" y2="470"/><line x1="80" y1="380" x2="742" y2="380"/></g>
    <!-- area -->
    <path d="M90 600 L150 580 L210 588 L270 540 L330 552 L390 500 L450 470 L510 486 L570 430 L630 410 L690 360 L744 332 L744 640 L90 640 Z" fill="#CDF564" fill-opacity="0.10"/>
    <path d="M90 600 L150 580 L210 588 L270 540 L330 552 L390 500 L450 470 L510 486 L570 430 L630 410 L690 360 L744 332" fill="none" stroke="#CDF564" stroke-width="2.5"/>
    <g fill="#CDF564"><circle cx="690" cy="360" r="4"/><circle cx="744" cy="332" r="4"/></g>
    <g fill="#3a3d42" font-size="11"><text x="86" y="664">1月</text><text x="320" y="664">6月</text><text x="690" y="664">12月</text></g>
  </g>
  <!-- funnel -->
  <g>
    <rect x="790" y="224" width="378" height="468" rx="10" fill="#101216" stroke="#23262b"/>
    <text x="814" y="262" fill="#E9E6DE" font-size="15" font-weight="600">灯塔漏斗</text>
    <g text-anchor="middle">
      <rect x="838" y="296" width="282" height="48" rx="6" fill="#1d2026"/><text x="979" y="325" fill="#9A998F" font-size="13">线索 100%</text>
      <rect x="868" y="360" width="222" height="48" rx="6" fill="#23262b"/><text x="979" y="389" fill="#9A998F" font-size="13">有效 ▮▮%</text>
      <rect x="898" y="424" width="162" height="48" rx="6" fill="#2f333a"/><text x="979" y="453" fill="#C9C7BE" font-size="13">商机 ▮▮%</text>
      <rect x="922" y="488" width="114" height="48" rx="6" fill="#7e9a3e"/><text x="979" y="517" fill="#0B0C0E" font-size="13">试听 ▮▮%</text>
      <rect x="946" y="552" width="66" height="48" rx="6" fill="#CDF564"/><text x="979" y="581" fill="#0B0C0E" font-size="13" font-weight="600">成交</text>
    </g>
    <text x="814" y="648" fill="#67675F" font-size="11">各级转化率已脱敏</text>
  </g>
</svg>
